<?xml version="1.0" encoding="UTF-8" standalone="no"?>
<svg xmlns="http://www.w3.org/2000/svg" version="1.1" viewBox="0 0 1024 1024">
    <defs>
        <linearGradient id="linearGradient861" gradientUnits="userSpaceOnUse" x1="0" y1="0" x2="0" y2="1024">
            <stop stop-color="#FFD54F" offset="0"/>
            <stop stop-color="#FFC107" offset="1"/>
        </linearGradient>
        <linearGradient id="linearGradient859" gradientUnits="userSpaceOnUse" x1="0" y1="0" x2="1024" y2="0">
            <stop stop-color="#4c4c4c" offset="0"/>
            <stop stop-color="#1a1a1a" offset="1"/>
        </linearGradient>
    </defs>
    <path d="m 188.74089,189.79585 662.14201,29.73874 c 15.33377,0.68868 27.31132,13.69238 26.61678,28.89711 l -31.56963,691.1239 c -0.69457,15.20473 -13.80866,27.08144 -29.14246,26.39277 L 154.64562,936.2096 c -15.33382,-0.68869 -27.3114,-13.69234 -26.61688,-28.89705 l 31.5697,-691.12389 c 0.69454,-15.20473 13.80865,-27.08149 29.14245,-26.39281 z"
          fill="url(#linearGradient859)"/>
    <path d="m 366.39565,8.0213922 c -0.26427,0 -0.56628,0 -0.83056,0.037434 C 315.01465,13.037623 264.53971,27.37506 192.20614,57.547318 c -5.28534,2.208639 -8.23003,7.861258 -6.94644,13.439008 67.84104,299.102154 120.12809,595.958244 23.55749,930.024374 -2.49166,8.7222 5.39859,16.8829 14.30816,14.6742 90.86998,-22.49812 101.59166,-28.71226 188.04462,-44.77169 5.09657,-0.93585 8.98507,-5.05366 9.58911,-10.1822 14.9877,-124.95656 17.59261,-250.92386 13.10008,-376.10505 109.3309,120.20238 176.37914,231.30817 243.42738,343.27495 2.26514,3.78088 6.49341,6.02696 10.98595,5.72749 65.04735,-4.15524 98.00518,-13.40158 187.7426,-11.56728 9.66462,0.18716 15.51624,-10.51911 10.04213,-18.45525 C 804.73859,786.32339 726.28913,679.14824 616.5807,555.01523 L 854.88652,302.77319 c 5.47409,-5.87722 3.54872,-15.34817 -3.77523,-18.71728 -36.2423,-16.47121 -73.84368,-33.3542 -143.1193,-42.15131 0,0 -7.51274,0.82355 -10.11763,3.55628 L 430.95223,522.25999 c -9.24934,-170.40214 -30.23967,-338.7828 -51.68302,-500.31294 0,-0.224608 -0.0378,-0.48665 -0.11326,-0.748692 l -0.75505,-3.743456 c -1.13257,-5.615184 -6.15363,-9.6206826 -11.9675,-9.4709444 z"
          fill="url(#linearGradient861)"/>
</svg>
